<svg
	width="454"
	height="364"
	version="1.1"
	fill="#FFFFFF	"
	xmlns="http://www.w3.org/2000/svg"
	desc="Created with imagetracer.js version 1.2.6" >
	<path
		fill="rgb(19,28,83)"
		stroke="rgb(19,28,83)"
		stroke-width="1"
		opacity="0.9294117647058824"
		d="M 174.5 113 L 194.5 114 L 207.5 118 Q 222.8 124.8 233 136.5 Q 248.8 153.2 250 184.5 L 249 185.5 L 248 199.5 L 244 211.5 Q 236.7 227.7 223.5 238 Q 214.2 245.7 201.5 250 L 186.5 253 L 175.5 253 L 174.5 252 L 163.5 251 L 148.5 245 Q 135.2 237.4 126 225.5 Q 117.5 215 114 199.5 L 113 194.5 L 113 171.5 Q 119 142 139.5 127 L 152.5 119 L 163.5 115 L 174.5 113 Z M 177 126 L 163 129 L 146 139 L 135 152 L 129 166 L 127 176 L 127 191 L 129 201 L 139 220 L 155 233 L 167 238 L 179 239 L 180 240 L 200 237 L 217 227 Q 231 215 235 192 L 235 175 L 233 166 L 224 148 Q 215 136 202 130 L 192 127 L 177 126 Z "/>
	<path
		fill="rgb(19,28,83)"
		stroke="rgb(19,28,83)"
		stroke-width="1"
		opacity="0.9294117647058824"
		d="M 282.5 114 L 302.5 114 L 315.5 117 Q 329.1 120.9 339 128.5 L 333 140 L 309.5 129 L 300.5 127 L 283.5 127 Q 272.2 129.2 266 136.5 Q 260.3 141.8 262 154.5 L 269.5 164 L 283.5 171 L 317.5 181 Q 330.4 186.1 338 196.5 Q 344.3 204.2 342 220.5 Q 338.6 235.6 327.5 243 Q 313.7 254.2 286.5 252 L 272.5 249 L 259.5 244 Q 249.2 239.8 242 232.5 L 249.5 222 Q 261.6 231.9 278.5 237 L 288.5 239 L 303.5 239 Q 316.8 236.8 324 228.5 Q 330 222.5 328 208.5 Q 325 201 318.5 197 L 310.5 193 L 273.5 182 Q 259.7 177.3 252 166.5 Q 246.3 159.2 248 144.5 Q 251.1 130.1 261.5 123 Q 269.8 116.3 282.5 114 Z " />
	<path
		fill="rgb(0,0,0)"
		stroke="rgb(0,0,0)"
		stroke-width="1"
		opacity="0"
		d="M 0 0 L 454 0 L 454 364 L 0 364 L 0 0 Z M 175 113 L 164 115 L 153 119 L 140 127 Q 119 142 113 172 L 113 195 L 114 200 Q 118 215 126 226 Q 135 237 149 245 L 164 251 L 175 252 L 176 253 L 187 253 L 202 250 Q 214 246 224 238 Q 237 228 244 212 L 248 200 L 249 186 L 250 185 Q 249 153 233 137 Q 223 125 208 118 L 195 114 L 175 113 Z M 283 114 Q 270 116 262 123 Q 251 130 248 145 Q 246 159 252 167 Q 260 177 274 182 L 311 193 L 319 197 Q 325 201 328 209 Q 330 223 324 229 Q 317 237 304 239 L 289 239 L 279 237 Q 262 232 250 222 L 242 233 Q 249 240 260 244 L 273 249 L 287 252 Q 314 254 328 243 Q 339 236 342 221 Q 344 204 338 197 Q 330 186 318 181 L 284 171 L 270 164 L 262 155 Q 260 142 266 137 Q 272 129 284 127 L 301 127 L 310 129 L 333 140 L 339 129 Q 329 121 316 117 L 303 114 L 283 114 Z " />
	<path
		fill="rgb(0,0,0)"
		stroke="rgb(0,0,0)"
		stroke-width="1"
		opacity="0"
		d="M 176.5 126 L 191.5 127 L 201.5 130 Q 215.4 136.1 224 147.5 L 233 165.5 L 235 174.5 L 235 191.5 Q 231.1 214.6 216.5 227 L 199.5 237 L 179.5 240 L 178.5 239 L 166.5 238 L 154.5 233 L 139 219.5 L 129 200.5 L 127 190.5 L 127 175.5 L 129 165.5 L 135 151.5 L 145.5 139 L 162.5 129 L 176.5 126 Z "/>
</svg>
