<svg width="575" height="142" version="1.1" xmlns="http://www.w3.org/2000/svg" desc="Created with imagetracer.js version 1.2.6" ><path fill="rgb(20,28,84)" stroke="rgb(20,28,84)" stroke-width="1" opacity="0.5686274509803921" d="M 509.5 0 L 513 0.5 L 509.5 1 L 509.5 0 Z " /><path fill="rgb(20,28,84)" stroke="rgb(20,28,84)" stroke-width="1" opacity="0.5686274509803921" d="M 526.5 0 L 531 0.5 L 526.5 1 L 526.5 0 Z " /><path fill="rgb(20,28,84)" stroke="rgb(20,28,84)" stroke-width="1" opacity="0.5686274509803921" d="M 64.5 1 L 72 1.5 L 64.5 2 L 64.5 1 Z " /><path fill="rgb(20,28,84)" stroke="rgb(20,28,84)" stroke-width="1" opacity="0.5686274509803921" d="M 55.5 2 L 58 2.5 L 55.5 3 L 55.5 2 Z " /><path fill="rgb(20,28,84)" stroke="rgb(20,28,84)" stroke-width="1" opacity="0.5686274509803921" d="M 78.5 2 L 81 2.5 L 78.5 3 L 78.5 2 Z " /><path fill="rgb(20,28,84)" stroke="rgb(20,28,84)" stroke-width="1" opacity="0.5686274509803921" d="M 170.5 2 L 175 2.5 L 170.5 3 L 170.5 2 Z " /><path fill="rgb(20,28,84)" stroke="rgb(20,28,84)" stroke-width="1" opacity="0.5686274509803921" d="M 183.5 2 L 188 2.5 L 183.5 3 L 183.5 2 Z " /><path fill="rgb(20,28,84)" stroke="rgb(20,28,84)" stroke-width="1" opacity="0.5686274509803921" d="M 238.5 2 L 239 138 L 268 138 L 268 84.5 L 269.5 83 L 322.5 83 L 322.5 84 L 269 84 L 269 139 L 239.5 139 L 238 137.5 L 238.5 2 Z " /><path fill="rgb(20,28,84)" stroke="rgb(20,28,84)" stroke-width="1" opacity="0.5686274509803921" d="M 268.5 2 L 269 54.5 L 268 54.5 L 268.5 2 Z " /><path fill="rgb(20,28,84)" stroke="rgb(20,28,84)" stroke-width="1" opacity="0.5686274509803921" d="M 358.5 2 L 359 138 L 388 138 L 388 95.5 L 389.5 94 L 411.5 94 L 412.5 96 L 411.5 95 L 389 95 L 389 139 L 359.5 139 L 358 137.5 L 358.5 2 Z " /><path fill="rgb(20,28,84)" stroke="rgb(20,28,84)" stroke-width="1" opacity="0.5686274509803921" d="M 428.5 2 L 433 2.5 L 428.5 3 L 428.5 2 Z " /><path fill="rgb(20,28,84)" stroke="rgb(20,28,84)" stroke-width="1" opacity="0.5686274509803921" d="M 192.5 3 L 195 3.5 L 192.5 4 L 192.5 3 Z " /><path fill="rgb(20,28,84)" stroke="rgb(20,28,84)" stroke-width="1" opacity="0.5686274509803921" d="M 485.5 10 L 480.5 16 L 485.5 10 Z " /><path fill="rgb(20,28,84)" stroke="rgb(20,28,84)" stroke-width="1" opacity="0.5686274509803921" d="M 32.5 11 L 31.5 13 L 32.5 11 Z " /><path fill="rgb(20,28,84)" stroke="rgb(20,28,84)" stroke-width="1" opacity="0.5686274509803921" d="M 148.5 11 L 146.5 14 L 148.5 11 Z " /><path fill="rgb(20,28,84)" stroke="rgb(20,28,84)" stroke-width="1" opacity="0.5686274509803921" d="M 105.5 12 L 106.5 14 L 105.5 12 Z " /><path fill="rgb(20,28,84)" stroke="rgb(20,28,84)" stroke-width="1" opacity="0.5686274509803921" d="M 457.5 12 L 458.5 14 L 457.5 12 Z " /><path fill="rgb(20,28,84)" stroke="rgb(20,28,84)" stroke-width="1" opacity="0.5686274509803921" d="M 29.5 13 L 28.5 15 L 29.5 13 Z " /><path fill="rgb(20,28,84)" stroke="rgb(20,28,84)" stroke-width="1" opacity="0.5686274509803921" d="M 58.5 14 L 61 14.5 L 58.5 15 L 58.5 14 Z " /><path fill="rgb(20,28,84)" stroke="rgb(20,28,84)" stroke-width="1" opacity="0.5686274509803921" d="M 74.5 14 L 77 14.5 L 74.5 15 L 74.5 14 Z " /><path fill="rgb(20,28,84)" stroke="rgb(20,28,84)" stroke-width="1" opacity="0.5686274509803921" d="M 173.5 14 L 185 14.5 L 173.5 15 L 173.5 14 Z " /><path fill="rgb(20,28,84)" stroke="rgb(20,28,84)" stroke-width="1" opacity="0.5686274509803921" d="M 144.5 15 L 142.5 18 L 144.5 15 Z " /><path fill="rgb(20,28,84)" stroke="rgb(20,28,84)" stroke-width="1" opacity="0.5686274509803921" d="M 25.5 16 L 24.5 18 L 25.5 16 Z " /><path fill="rgb(20,28,84)" stroke="rgb(20,28,84)" stroke-width="1" opacity="0.5686274509803921" d="M 569.5 16 L 570.5 18 L 569.5 16 Z " /><path fill="rgb(20,28,84)" stroke="rgb(20,28,84)" stroke-width="1" opacity="0.5686274509803921" d="M 462.5 17 L 463.5 19 L 462.5 17 Z " /><path fill="rgb(20,28,84)" stroke="rgb(20,28,84)" stroke-width="1" opacity="0.5686274509803921" d="M 114.5 19 L 118.5 24 L 114.5 19 Z " /><path fill="rgb(20,28,84)" stroke="rgb(20,28,84)" stroke-width="1" opacity="0.5686274509803921" d="M 158.5 19 L 157.5 21 L 158.5 19 Z " /><path fill="rgb(20,28,84)" stroke="rgb(20,28,84)" stroke-width="1" opacity="0.5686274509803921" d="M 212.5 23 L 213.5 25 L 212.5 23 Z " /><path fill="rgb(20,28,84)" stroke="rgb(20,28,84)" stroke-width="1" opacity="0.5686274509803921" d="M 35.5 24 L 33.5 27 L 35.5 24 Z " /><path fill="rgb(20,28,84)" stroke="rgb(20,28,84)" stroke-width="1" opacity="0.5686274509803921" d="M 221.5 24 L 220.5 26 L 221.5 24 Z " /><path fill="rgb(20,28,84)" stroke="rgb(20,28,84)" stroke-width="1" opacity="0.5686274509803921" d="M 16.5 25 L 15.5 27 L 16.5 25 Z " /><path fill="rgb(20,28,84)" stroke="rgb(20,28,84)" stroke-width="1" opacity="0.5686274509803921" d="M 152.5 25 L 151.5 27 L 152.5 25 Z " /><path fill="rgb(20,28,84)" stroke="rgb(20,28,84)" stroke-width="1" opacity="0.5686274509803921" d="M 102.5 26 L 109.5 34 L 102.5 26 Z " /><path fill="rgb(20,28,84)" stroke="rgb(20,28,84)" stroke-width="1" opacity="0.5686274509803921" d="M 121.5 27 L 122.5 29 L 121.5 27 Z " /><path fill="rgb(20,28,84)" stroke="rgb(20,28,84)" stroke-width="1" opacity="0.5686274509803921" d="M 525.5 27 L 528 27.5 L 525.5 28 L 525.5 27 Z " /><path fill="rgb(20,28,84)" stroke="rgb(20,28,84)" stroke-width="1" opacity="0.5686274509803921" d="M 13.5 29 L 12.5 31 L 13.5 29 Z " /><path fill="rgb(20,28,84)" stroke="rgb(20,28,84)" stroke-width="1" opacity="0.5686274509803921" d="M 422.5 29 L 426 29.5 L 422.5 30 L 422.5 29 Z " /><path fill="rgb(20,28,84)" stroke="rgb(20,28,84)" stroke-width="1" opacity="0.5686274509803921" d="M 562.5 29 L 561.5 31 L 562.5 29 Z " /><path fill="rgb(20,28,84)" stroke="rgb(20,28,84)" stroke-width="1" opacity="0.5686274509803921" d="M 388.5 30 L 389 67.5 L 388 67.5 L 388.5 30 Z " /><path fill="rgb(20,28,84)" stroke="rgb(20,28,84)" stroke-width="1" opacity="0.5686274509803921" d="M 505.5 30 L 503.5 33 L 505.5 30 Z " /><path fill="rgb(20,28,84)" stroke="rgb(20,28,84)" stroke-width="1" opacity="0.5686274509803921" d="M 26.5 33 L 25.5 35 L 26.5 33 Z " /><path fill="rgb(20,28,84)" stroke="rgb(20,28,84)" stroke-width="1" opacity="0.5686274509803921" d="M 135.5 33 L 136 43.5 L 135 43.5 L 135.5 33 Z " /><path fill="rgb(20,28,84)" stroke="rgb(20,28,84)" stroke-width="1" opacity="0.5686274509803921" d="M 148.5 34 L 149 40.5 L 148 40.5 L 148.5 34 Z " /><path fill="rgb(20,28,84)" stroke="rgb(20,28,84)" stroke-width="1" opacity="0.5686274509803921" d="M 111.5 36 L 112.5 38 L 111.5 36 Z " /><path fill="rgb(20,28,84)" stroke="rgb(20,28,84)" stroke-width="1" opacity="0.5686274509803921" d="M 501.5 36 L 502 41.5 L 501 41.5 L 501.5 36 Z " /><path fill="rgb(20,28,84)" stroke="rgb(20,28,84)" stroke-width="1" opacity="0.5686274509803921" d="M 8.5 37 L 7.5 39 L 8.5 37 Z " /><path fill="rgb(20,28,84)" stroke="rgb(20,28,84)" stroke-width="1" opacity="0.5686274509803921" d="M 550.5 37 L 551.5 39 L 550.5 37 Z " /><path fill="rgb(20,28,84)" stroke="rgb(20,28,84)" stroke-width="1" opacity="0.5686274509803921" d="M 113.5 39 L 114.5 41 L 113.5 39 Z " /><path fill="rgb(20,28,84)" stroke="rgb(20,28,84)" stroke-width="1" opacity="0.5686274509803921" d="M 152.5 48 L 154.5 51 L 152.5 48 Z " /><path fill="rgb(20,28,84)" stroke="rgb(20,28,84)" stroke-width="1" opacity="0.5686274509803921" d="M 139.5 54 L 140.5 56 L 139.5 54 Z " /><path fill="rgb(20,28,84)" stroke="rgb(20,28,84)" stroke-width="1" opacity="0.5686274509803921" d="M 471.5 56 L 472 58.5 L 471 58.5 L 471.5 56 Z " /><path fill="rgb(20,28,84)" stroke="rgb(20,28,84)" stroke-width="1" opacity="0.5686274509803921" d="M 135.5 59 L 136 62.5 L 135 62.5 L 135.5 59 Z " /><path fill="rgb(20,28,84)" stroke="rgb(20,28,84)" stroke-width="1" opacity="0.5686274509803921" d="M 0.5 60 L 1 64.5 L 0 64.5 L 0.5 60 Z " /><path fill="rgb(20,28,84)" stroke="rgb(20,28,84)" stroke-width="1" opacity="0.5686274509803921" d="M 146.5 61 L 147.5 63 L 146.5 61 Z " /><path fill="rgb(20,28,84)" stroke="rgb(20,28,84)" stroke-width="1" opacity="0.5686274509803921" d="M 437.5 61 L 436.5 63 L 437.5 61 Z " /><path fill="rgb(20,28,84)" stroke="rgb(20,28,84)" stroke-width="1" opacity="0.5686274509803921" d="M 122.5 65 L 123 76.5 L 122 76.5 L 122.5 65 Z " /><path fill="rgb(20,28,84)" stroke="rgb(20,28,84)" stroke-width="1" opacity="0.5686274509803921" d="M 478.5 65 L 483.5 71 L 478.5 65 Z " /><path fill="rgb(20,28,84)" stroke="rgb(20,28,84)" stroke-width="1" opacity="0.5686274509803921" d="M 13.5 66 L 14 75.5 L 13 75.5 L 13.5 66 Z " /><path fill="rgb(20,28,84)" stroke="rgb(20,28,84)" stroke-width="1" opacity="0.5686274509803921" d="M 562.5 70 L 567.5 76 L 562.5 70 Z " /><path fill="rgb(20,28,84)" stroke="rgb(20,28,84)" stroke-width="1" opacity="0.5686274509803921" d="M 464.5 74 L 462.5 77 L 464.5 74 Z " /><path fill="rgb(20,28,84)" stroke="rgb(20,28,84)" stroke-width="1" opacity="0.5686274509803921" d="M 0.5 77 L 1 81.5 L 0 81.5 L 0.5 77 Z " /><path fill="rgb(20,28,84)" stroke="rgb(20,28,84)" stroke-width="1" opacity="0.5686274509803921" d="M 135.5 78 L 136 81.5 L 135 81.5 L 135.5 78 Z " /><path fill="rgb(20,28,84)" stroke="rgb(20,28,84)" stroke-width="1" opacity="0.5686274509803921" d="M 14.5 80 L 15 82.5 L 14 82.5 L 14.5 80 Z " /><path fill="rgb(20,28,84)" stroke="rgb(20,28,84)" stroke-width="1" opacity="0.5686274509803921" d="M 458.5 80 L 456.5 83 L 458.5 80 Z " /><path fill="rgb(20,28,84)" stroke="rgb(20,28,84)" stroke-width="1" opacity="0.5686274509803921" d="M 121.5 81 L 122 83.5 L 121 83.5 L 121.5 81 Z " /><path fill="rgb(20,28,84)" stroke="rgb(20,28,84)" stroke-width="1" opacity="0.5686274509803921" d="M 223.5 83 L 224.5 85 L 223.5 83 Z " /><path fill="rgb(20,28,84)" stroke="rgb(20,28,84)" stroke-width="1" opacity="0.5686274509803921" d="M 207.5 86 L 212.5 92 L 207.5 86 Z " /><path fill="rgb(20,28,84)" stroke="rgb(20,28,84)" stroke-width="1" opacity="0.5686274509803921" d="M 574.5 91 L 575 95.5 L 574 95.5 L 574.5 91 Z " /><path fill="rgb(20,28,84)" stroke="rgb(20,28,84)" stroke-width="1" opacity="0.5686274509803921" d="M 540.5 92 L 543.5 96 L 540.5 92 Z " /><path fill="rgb(20,28,84)" stroke="rgb(20,28,84)" stroke-width="1" opacity="0.5686274509803921" d="M 228.5 94 L 229 97.5 L 228 97.5 L 228.5 94 Z " /><path fill="rgb(20,28,84)" stroke="rgb(20,28,84)" stroke-width="1" opacity="0.5686274509803921" d="M 446.5 94 L 447.5 96 L 446.5 94 Z " /><path fill="rgb(20,28,84)" stroke="rgb(20,28,84)" stroke-width="1" opacity="0.5686274509803921" d="M 215.5 97 L 216 99.5 L 215 99.5 L 215.5 97 Z " /><path fill="rgb(20,28,84)" stroke="rgb(20,28,84)" stroke-width="1" opacity="0.5686274509803921" d="M 448.5 97 L 449.5 99 L 448.5 97 Z " /><path fill="rgb(20,28,84)" stroke="rgb(20,28,84)" stroke-width="1" opacity="0.5686274509803921" d="M 483.5 98 L 485 98.5 L 482.5 100 L 483.5 98 Z " /><path fill="rgb(20,28,84)" stroke="rgb(20,28,84)" stroke-width="1" opacity="0.5686274509803921" d="M 20.5 99 L 21.5 101 L 20.5 99 Z " /><path fill="rgb(20,28,84)" stroke="rgb(20,28,84)" stroke-width="1" opacity="0.5686274509803921" d="M 487.5 100 L 488.5 102 L 487.5 100 Z " /><path fill="rgb(20,28,84)" stroke="rgb(20,28,84)" stroke-width="1" opacity="0.5686274509803921" d="M 416.5 101 L 417.5 103 L 416.5 101 Z " /><path fill="rgb(20,28,84)" stroke="rgb(20,28,84)" stroke-width="1" opacity="0.5686274509803921" d="M 574.5 101 L 575 105.5 L 574 105.5 L 574.5 101 Z " /><path fill="rgb(20,28,84)" stroke="rgb(20,28,84)" stroke-width="1" opacity="0.5686274509803921" d="M 113.5 103 L 112.5 105 L 113.5 103 Z " /><path fill="rgb(20,28,84)" stroke="rgb(20,28,84)" stroke-width="1" opacity="0.5686274509803921" d="M 479.5 103 L 477.5 106 L 479.5 103 Z " /><path fill="rgb(20,28,84)" stroke="rgb(20,28,84)" stroke-width="1" opacity="0.5686274509803921" d="M 228.5 104 L 229 107.5 L 228 107.5 L 228.5 104 Z " /><path fill="rgb(20,28,84)" stroke="rgb(20,28,84)" stroke-width="1" opacity="0.5686274509803921" d="M 418.5 104 L 419.5 106 L 418.5 104 Z " /><path fill="rgb(20,28,84)" stroke="rgb(20,28,84)" stroke-width="1" opacity="0.5686274509803921" d="M 215.5 105 L 216 107.5 L 215 107.5 L 215.5 105 Z " /><path fill="rgb(20,28,84)" stroke="rgb(20,28,84)" stroke-width="1" opacity="0.5686274509803921" d="M 110.5 107 L 109.5 109 L 110.5 107 Z " /><path fill="rgb(20,28,84)" stroke="rgb(20,28,84)" stroke-width="1" opacity="0.5686274509803921" d="M 420.5 107 L 421.5 109 L 420.5 107 Z " /><path fill="rgb(20,28,84)" stroke="rgb(20,28,84)" stroke-width="1" opacity="0.5686274509803921" d="M 543.5 107 L 539.5 112 L 543.5 107 Z " /><path fill="rgb(20,28,84)" stroke="rgb(20,28,84)" stroke-width="1" opacity="0.5686274509803921" d="M 27.5 109 L 32.5 115 L 27.5 109 Z " /><path fill="rgb(20,28,84)" stroke="rgb(20,28,84)" stroke-width="1" opacity="0.5686274509803921" d="M 474.5 109 L 472.5 112 L 474.5 109 Z " /><path fill="rgb(20,28,84)" stroke="rgb(20,28,84)" stroke-width="1" opacity="0.5686274509803921" d="M 11.5 110 L 12.5 112 L 11.5 110 Z " /><path fill="rgb(20,28,84)" stroke="rgb(20,28,84)" stroke-width="1" opacity="0.5686274509803921" d="M 422.5 110 L 423.5 112 L 422.5 110 Z " /><path fill="rgb(20,28,84)" stroke="rgb(20,28,84)" stroke-width="1" opacity="0.5686274509803921" d="M 424.5 113 L 425.5 115 L 424.5 113 Z " /><path fill="rgb(20,28,84)" stroke="rgb(20,28,84)" stroke-width="1" opacity="0.5686274509803921" d="M 459.5 113 L 460.5 115 L 459.5 113 Z " /><path fill="rgb(20,28,84)" stroke="rgb(20,28,84)" stroke-width="1" opacity="0.5686274509803921" d="M 14.5 114 L 15.5 116 L 14.5 114 Z " /><path fill="rgb(20,28,84)" stroke="rgb(20,28,84)" stroke-width="1" opacity="0.5686274509803921" d="M 518.5 114 L 524 114.5 L 518.5 115 L 518.5 114 Z " /><path fill="rgb(20,28,84)" stroke="rgb(20,28,84)" stroke-width="1" opacity="0.5686274509803921" d="M 526.5 114 L 531 114.5 L 526.5 115 L 526.5 114 Z " /><path fill="rgb(20,28,84)" stroke="rgb(20,28,84)" stroke-width="1" opacity="0.5686274509803921" d="M 102.5 115 L 101.5 117 L 102.5 115 Z " /><path fill="rgb(20,28,84)" stroke="rgb(20,28,84)" stroke-width="1" opacity="0.5686274509803921" d="M 120.5 115 L 119.5 117 L 120.5 115 Z " /><path fill="rgb(20,28,84)" stroke="rgb(20,28,84)" stroke-width="1" opacity="0.5686274509803921" d="M 132.5 115 L 131.5 117 L 132.5 115 Z " /><path fill="rgb(20,28,84)" stroke="rgb(20,28,84)" stroke-width="1" opacity="0.5686274509803921" d="M 469.5 115 L 467.5 118 L 469.5 115 Z " /><path fill="rgb(20,28,84)" stroke="rgb(20,28,84)" stroke-width="1" opacity="0.5686274509803921" d="M 426.5 116 L 427.5 118 L 426.5 116 Z " /><path fill="rgb(20,28,84)" stroke="rgb(20,28,84)" stroke-width="1" opacity="0.5686274509803921" d="M 461.5 116 L 462.5 118 L 461.5 116 Z " /><path fill="rgb(20,28,84)" stroke="rgb(20,28,84)" stroke-width="1" opacity="0.5686274509803921" d="M 36.5 117 L 37.5 119 L 36.5 117 Z " /><path fill="rgb(20,28,84)" stroke="rgb(20,28,84)" stroke-width="1" opacity="0.5686274509803921" d="M 39.5 119 L 40.5 121 L 39.5 119 Z " /><path fill="rgb(20,28,84)" stroke="rgb(20,28,84)" stroke-width="1" opacity="0.5686274509803921" d="M 428.5 119 L 429.5 121 L 428.5 119 Z " /><path fill="rgb(20,28,84)" stroke="rgb(20,28,84)" stroke-width="1" opacity="0.5686274509803921" d="M 130.5 121 L 131.5 123 L 130.5 121 Z " /><path fill="rgb(20,28,84)" stroke="rgb(20,28,84)" stroke-width="1" opacity="0.5686274509803921" d="M 430.5 122 L 431.5 124 L 430.5 122 Z " /><path fill="rgb(20,28,84)" stroke="rgb(20,28,84)" stroke-width="1" opacity="0.5686274509803921" d="M 469.5 122 L 470.5 124 L 469.5 122 Z " /><path fill="rgb(20,28,84)" stroke="rgb(20,28,84)" stroke-width="1" opacity="0.5686274509803921" d="M 112.5 123 L 110.5 126 L 112.5 123 Z " /><path fill="rgb(20,28,84)" stroke="rgb(20,28,84)" stroke-width="1" opacity="0.5686274509803921" d="M 221.5 123 L 220.5 125 L 221.5 123 Z " /><path fill="rgb(20,28,84)" stroke="rgb(20,28,84)" stroke-width="1" opacity="0.5686274509803921" d="M 567.5 123 L 566.5 125 L 567.5 123 Z " /><path fill="rgb(20,28,84)" stroke="rgb(20,28,84)" stroke-width="1" opacity="0.5686274509803921" d="M 25.5 125 L 26.5 127 L 25.5 125 Z " /><path fill="rgb(20,28,84)" stroke="rgb(20,28,84)" stroke-width="1" opacity="0.5686274509803921" d="M 432.5 125 L 433.5 127 L 432.5 125 Z " /><path fill="rgb(20,28,84)" stroke="rgb(20,28,84)" stroke-width="1" opacity="0.5686274509803921" d="M 473.5 125 L 474.5 127 L 473.5 125 Z " /><path fill="rgb(20,28,84)" stroke="rgb(20,28,84)" stroke-width="1" opacity="0.5686274509803921" d="M 171.5 126 L 174 126.5 L 171.5 127 L 171.5 126 Z " /><path fill="rgb(20,28,84)" stroke="rgb(20,28,84)" stroke-width="1" opacity="0.5686274509803921" d="M 59.5 127 L 63 127.5 L 59.5 128 L 59.5 127 Z " /><path fill="rgb(20,28,84)" stroke="rgb(20,28,84)" stroke-width="1" opacity="0.5686274509803921" d="M 74.5 127 L 77 127.5 L 74.5 128 L 74.5 127 Z " /><path fill="rgb(20,28,84)" stroke="rgb(20,28,84)" stroke-width="1" opacity="0.5686274509803921" d="M 107.5 127 L 106.5 129 L 107.5 127 Z " /><path fill="rgb(20,28,84)" stroke="rgb(20,28,84)" stroke-width="1" opacity="0.5686274509803921" d="M 178.5 127 L 189 127.5 L 178.5 128 L 178.5 127 Z " /><path fill="rgb(20,28,84)" stroke="rgb(20,28,84)" stroke-width="1" opacity="0.5686274509803921" d="M 476.5 127 L 477.5 129 L 476.5 127 Z " /><path fill="rgb(20,28,84)" stroke="rgb(20,28,84)" stroke-width="1" opacity="0.5686274509803921" d="M 216.5 128 L 215.5 130 L 216.5 128 Z " /><path fill="rgb(20,28,84)" stroke="rgb(20,28,84)" stroke-width="1" opacity="0.5686274509803921" d="M 434.5 128 L 435.5 130 L 434.5 128 Z " /><path fill="rgb(20,28,84)" stroke="rgb(20,28,84)" stroke-width="1" opacity="0.5686274509803921" d="M 104.5 129 L 103.5 131 L 104.5 129 Z " /><path fill="rgb(20,28,84)" stroke="rgb(20,28,84)" stroke-width="1" opacity="0.5686274509803921" d="M 212.5 131 L 211.5 133 L 212.5 131 Z " /><path fill="rgb(20,28,84)" stroke="rgb(20,28,84)" stroke-width="1" opacity="0.5686274509803921" d="M 472.5 132 L 473.5 134 L 472.5 132 Z " /><path fill="rgb(20,28,84)" stroke="rgb(20,28,84)" stroke-width="1" opacity="0.5686274509803921" d="M 474.5 135 L 475.5 137 L 474.5 135 Z " /><path fill="rgb(20,28,84)" stroke="rgb(20,28,84)" stroke-width="1" opacity="0.5686274509803921" d="M 324.5 138 L 354 138.5 L 324.5 139 L 324.5 138 Z " /><path fill="rgb(20,28,84)" stroke="rgb(20,28,84)" stroke-width="1" opacity="0.5686274509803921" d="M 441.5 138 L 476 138.5 L 441.5 139 L 441.5 138 Z " /><path fill="rgb(20,28,84)" stroke="rgb(20,28,84)" stroke-width="1" opacity="0.5686274509803921" d="M 56.5 139 L 59 139.5 L 56.5 140 L 56.5 139 Z " /><path fill="rgb(20,28,84)" stroke="rgb(20,28,84)" stroke-width="1" opacity="0.5686274509803921" d="M 77.5 139 L 80 139.5 L 77.5 140 L 77.5 139 Z " /><path fill="rgb(20,28,84)" stroke="rgb(20,28,84)" stroke-width="1" opacity="0.5686274509803921" d="M 174.5 139 L 191 139.5 L 174.5 140 L 174.5 139 Z " /><path fill="rgb(20,28,84)" stroke="rgb(20,28,84)" stroke-width="1" opacity="0.5686274509803921" d="M 509.5 140 L 512 140.5 L 509.5 141 L 509.5 140 Z " /><path fill="rgb(20,28,84)" stroke="rgb(20,28,84)" stroke-width="1" opacity="0.5686274509803921" d="M 536.5 140 L 539 140.5 L 536.5 141 L 536.5 140 Z " /><path fill="rgb(20,28,84)" stroke="rgb(20,28,84)" stroke-width="1" opacity="0.5686274509803921" d="M 518.5 141 L 531 141.5 L 518.5 142 L 518.5 141 Z " /><path fill="rgb(20,29,84)" stroke="rgb(20,29,84)" stroke-width="1" opacity="1" d="M 513.5 0 L 525.5 0 L 526.5 1 L 534.5 1 L 543.5 3 Q 559.3 7.7 570 17.5 L 554.5 40 Q 544.7 32.3 531.5 28 Q 523.6 25.4 511.5 27 L 503 32.5 Q 500.2 35.2 501 41.5 Q 502.4 47.6 507.5 50 L 549.5 63 Q 561.8 67.8 569 77.5 L 574 88.5 L 575 100.5 L 572 115.5 Q 568.1 125.1 560.5 131 Q 544.5 144 512.5 141 L 498.5 138 L 487.5 134 L 466 119.5 L 483.5 99 L 485.5 99 Q 494.2 107.3 506.5 112 L 518.5 115 L 530.5 115 L 539.5 112 L 544 107.5 L 545 98.5 L 540.5 92 L 526.5 86 Q 508.8 83.2 494.5 77 Q 483.5 72.5 477 63.5 L 472.5 52 L 470 64.5 Q 466.5 74 459.5 80 Q 453 86.5 443 89.5 L 476 137.5 L 441.5 138 L 411.5 94 L 389.5 94 L 388 95.5 L 388 138 L 359 138 L 359 2 L 427.5 2 L 446.5 6 L 462 16.5 Q 469.1 23.9 471.5 36 Q 474.6 17.6 487.5 9 L 496.5 4 L 513.5 0 Z M 390 29 L 388 31 L 388 68 L 427 68 L 437 63 L 442 54 Q 443 44 440 39 Q 435 31 426 29 L 390 29 Z " /><path fill="rgb(20,29,84)" stroke="rgb(20,29,84)" stroke-width="1" opacity="1" d="M 58.5 2 L 77.5 2 L 90.5 5 Q 109.5 12 121 26.5 Q 128.7 35.8 133 48.5 L 136 63.5 L 136 77.5 L 135 78.5 L 134 89.5 L 130 100.5 Q 123.8 113.8 113.5 123 Q 102.5 133 86.5 138 L 76.5 140 L 59.5 140 L 45.5 137 L 36.5 133 Q 24.4 126.6 16 116.5 Q 6.5 105.5 2 89.5 L 1 77.5 L 0 76.5 L 0 65.5 L 3 49.5 L 7 39.5 Q 13.3 26.9 23.5 18 Q 36.8 5.8 58.5 2 Z M 59 14 Q 45 17 36 24 L 21 41 L 15 55 L 14 66 L 13 67 L 13 76 L 15 87 Q 19 100 27 110 Q 38 124 60 128 L 77 128 L 82 127 L 102 117 L 114 104 L 121 88 L 123 77 L 123 66 L 120 52 Q 116 41 110 34 Q 101 23 88 17 L 77 14 L 59 14 Z " /><path fill="rgb(20,29,84)" stroke="rgb(20,29,84)" stroke-width="1" opacity="1" d="M 175.5 2 Q 208.1 2.4 226 17.5 L 220 27 L 208.5 21 L 194.5 16 L 184.5 14 L 173.5 14 L 164.5 16 L 158.5 19 L 151 26.5 L 148 34.5 L 148 40.5 L 154.5 51 L 166.5 58 L 205.5 70 Q 216.2 74.3 223 82.5 L 228 92.5 L 229 103.5 L 227 113.5 Q 223.8 122.3 217.5 128 Q 208.6 136.1 194.5 139 L 170.5 139 Q 145.4 134.1 129 120.5 L 136.5 110 Q 146.5 119 160.5 124 L 171.5 127 L 188.5 128 L 197.5 126 L 205.5 122 L 213 114.5 Q 217.5 109 216 97.5 Q 213.4 90.1 207.5 86 L 196.5 80 L 159.5 69 Q 148.2 64.8 141 56.5 Q 133.3 48.7 136 30.5 Q 139.4 20.5 145 14 L 157.5 6 L 175.5 2 Z " /><path fill="rgb(20,29,84)" stroke="rgb(20,29,84)" stroke-width="1" opacity="1" d="M 239 2 L 268 2 L 268 54.5 L 269.5 56 L 324 56 L 324 2 L 354 2 L 354 137.5 L 353.5 138 L 324 138 L 324 84.5 L 322.5 83 L 269.5 83 L 268 84.5 L 268 138 L 239 138 L 239 2 Z " /><path fill="rgb(19,30,83)" stroke="rgb(19,30,83)" stroke-width="1" opacity="0.11372549019607843" d="M 61.5 1 L 64 1.5 L 61.5 2 L 61.5 1 Z " /><path fill="rgb(19,30,83)" stroke="rgb(19,30,83)" stroke-width="1" opacity="0.11372549019607843" d="M 72.5 1 L 76 1.5 L 72.5 2 L 72.5 1 Z " /><path fill="rgb(19,30,83)" stroke="rgb(19,30,83)" stroke-width="1" opacity="0.11372549019607843" d="M 238.5 1 L 269 1.5 L 238.5 2 L 238.5 1 Z " /><path fill="rgb(19,30,83)" stroke="rgb(19,30,83)" stroke-width="1" opacity="0.11372549019607843" d="M 323 1 L 354 1.5 L 324 2 L 324 54.5 L 322.5 56 L 269 55.5 L 323 55 L 323 1 Z " /><path fill="rgb(19,30,83)" stroke="rgb(19,30,83)" stroke-width="1" opacity="0.11372549019607843" d="M 358.5 1 L 423 1.5 L 358.5 2 L 358.5 1 Z " /><path fill="rgb(19,30,83)" stroke="rgb(19,30,83)" stroke-width="1" opacity="0.11372549019607843" d="M 487.5 8 L 486.5 10 L 487.5 8 Z " /><path fill="rgb(19,30,83)" stroke="rgb(19,30,83)" stroke-width="1" opacity="0.11372549019607843" d="M 150.5 9 L 149.5 11 L 150.5 9 Z " /><path fill="rgb(19,30,83)" stroke="rgb(19,30,83)" stroke-width="1" opacity="0.11372549019607843" d="M 455.5 10 L 456.5 12 L 455.5 10 Z " /><path fill="rgb(19,30,83)" stroke="rgb(19,30,83)" stroke-width="1" opacity="0.11372549019607843" d="M 564.5 12 L 565.5 14 L 564.5 12 Z " /><path fill="rgb(19,30,83)" stroke="rgb(19,30,83)" stroke-width="1" opacity="0.11372549019607843" d="M 107.5 13 L 108.5 15 L 107.5 13 Z " /><path fill="rgb(19,30,83)" stroke="rgb(19,30,83)" stroke-width="1" opacity="0.11372549019607843" d="M 145.5 13 L 144.5 15 L 145.5 13 Z " /><path fill="rgb(19,30,83)" stroke="rgb(19,30,83)" stroke-width="1" opacity="0.11372549019607843" d="M 27.5 14 L 26.5 16 L 27.5 14 Z " /><path fill="rgb(19,30,83)" stroke="rgb(19,30,83)" stroke-width="1" opacity="0.11372549019607843" d="M 61.5 14 L 64 14.5 L 61.5 15 L 61.5 14 Z " /><path fill="rgb(19,30,83)" stroke="rgb(19,30,83)" stroke-width="1" opacity="0.11372549019607843" d="M 71.5 14 L 74 14.5 L 71.5 15 L 71.5 14 Z " /><path fill="rgb(19,30,83)" stroke="rgb(19,30,83)" stroke-width="1" opacity="0.11372549019607843" d="M 460.5 14 L 462.5 17 L 460.5 14 Z " /><path fill="rgb(19,30,83)" stroke="rgb(19,30,83)" stroke-width="1" opacity="0.11372549019607843" d="M 567.5 14 L 568.5 16 L 567.5 14 Z " /><path fill="rgb(19,30,83)" stroke="rgb(19,30,83)" stroke-width="1" opacity="0.11372549019607843" d="M 111.5 16 L 113.5 19 L 111.5 16 Z " /><path fill="rgb(19,30,83)" stroke="rgb(19,30,83)" stroke-width="1" opacity="0.11372549019607843" d="M 479.5 16 L 478.5 18 L 479.5 16 Z " /><path fill="rgb(19,30,83)" stroke="rgb(19,30,83)" stroke-width="1" opacity="0.11372549019607843" d="M 22.5 18 L 17.5 24 L 22.5 18 Z " /><path fill="rgb(19,30,83)" stroke="rgb(19,30,83)" stroke-width="1" opacity="0.11372549019607843" d="M 141.5 18 L 140.5 20 L 141.5 18 Z " /><path fill="rgb(19,30,83)" stroke="rgb(19,30,83)" stroke-width="1" opacity="0.11372549019607843" d="M 570.5 18 L 569.5 20 L 570.5 18 Z " /><path fill="rgb(19,30,83)" stroke="rgb(19,30,83)" stroke-width="1" opacity="0.11372549019607843" d="M 464.5 19 L 465.5 21 L 464.5 19 Z " /><path fill="rgb(19,30,83)" stroke="rgb(19,30,83)" stroke-width="1" opacity="0.11372549019607843" d="M 224.5 20 L 223.5 22 L 224.5 20 Z " /><path fill="rgb(19,30,83)" stroke="rgb(19,30,83)" stroke-width="1" opacity="0.11372549019607843" d="M 156.5 21 L 153.5 25 L 156.5 21 Z " /><path fill="rgb(19,30,83)" stroke="rgb(19,30,83)" stroke-width="1" opacity="0.11372549019607843" d="M 568.5 21 L 567.5 23 L 568.5 21 Z " /><path fill="rgb(19,30,83)" stroke="rgb(19,30,83)" stroke-width="1" opacity="0.11372549019607843" d="M 96.5 22 L 97.5 24 L 96.5 22 Z " /><path fill="rgb(19,30,83)" stroke="rgb(19,30,83)" stroke-width="1" opacity="0.11372549019607843" d="M 466.5 22 L 467.5 24 L 466.5 22 Z " /><path fill="rgb(19,30,83)" stroke="rgb(19,30,83)" stroke-width="1" opacity="0.11372549019607843" d="M 37.5 23 L 36.5 25 L 37.5 23 Z " /><path fill="rgb(19,30,83)" stroke="rgb(19,30,83)" stroke-width="1" opacity="0.11372549019607843" d="M 99.5 24 L 100.5 26 L 99.5 24 Z " /><path fill="rgb(19,30,83)" stroke="rgb(19,30,83)" stroke-width="1" opacity="0.11372549019607843" d="M 119.5 24 L 121.5 27 L 119.5 24 Z " /><path fill="rgb(19,30,83)" stroke="rgb(19,30,83)" stroke-width="1" opacity="0.11372549019607843" d="M 14.5 27 L 13.5 29 L 14.5 27 Z " /><path fill="rgb(19,30,83)" stroke="rgb(19,30,83)" stroke-width="1" opacity="0.11372549019607843" d="M 32.5 27 L 27.5 33 L 32.5 27 Z " /><path fill="rgb(19,30,83)" stroke="rgb(19,30,83)" stroke-width="1" opacity="0.11372549019607843" d="M 123.5 29 L 124.5 31 L 123.5 29 Z " /><path fill="rgb(19,30,83)" stroke="rgb(19,30,83)" stroke-width="1" opacity="0.11372549019607843" d="M 389.5 29 L 422 29.5 L 389.5 30 L 389.5 29 Z " /><path fill="rgb(19,30,83)" stroke="rgb(19,30,83)" stroke-width="1" opacity="0.11372549019607843" d="M 561.5 31 L 560.5 33 L 561.5 31 Z " /><path fill="rgb(19,30,83)" stroke="rgb(19,30,83)" stroke-width="1" opacity="0.11372549019607843" d="M 434.5 33 L 438.5 38 L 434.5 33 Z " /><path fill="rgb(19,30,83)" stroke="rgb(19,30,83)" stroke-width="1" opacity="0.11372549019607843" d="M 109.5 34 L 110.5 36 L 109.5 34 Z " /><path fill="rgb(19,30,83)" stroke="rgb(19,30,83)" stroke-width="1" opacity="0.11372549019607843" d="M 559.5 34 L 558.5 36 L 559.5 34 Z " /><path fill="rgb(19,30,83)" stroke="rgb(19,30,83)" stroke-width="1" opacity="0.11372549019607843" d="M 25.5 35 L 24.5 37 L 25.5 35 Z " /><path fill="rgb(19,30,83)" stroke="rgb(19,30,83)" stroke-width="1" opacity="0.11372549019607843" d="M 557.5 37 L 556.5 39 L 557.5 37 Z " /><path fill="rgb(19,30,83)" stroke="rgb(19,30,83)" stroke-width="1" opacity="0.11372549019607843" d="M 441.5 45 L 442 51.5 L 441 51.5 L 441.5 45 Z " /><path fill="rgb(19,30,83)" stroke="rgb(19,30,83)" stroke-width="1" opacity="0.11372549019607843" d="M 503.5 45 L 506.5 49 L 503.5 45 Z " /><path fill="rgb(19,30,83)" stroke="rgb(19,30,83)" stroke-width="1" opacity="0.11372549019607843" d="M 156.5 51 L 157.5 53 L 156.5 51 Z " /><path fill="rgb(19,30,83)" stroke="rgb(19,30,83)" stroke-width="1" opacity="0.11372549019607843" d="M 140.5 56 L 145.5 62 L 140.5 56 Z " /><path fill="rgb(19,30,83)" stroke="rgb(19,30,83)" stroke-width="1" opacity="0.11372549019607843" d="M 438.5 59 L 437.5 61 L 438.5 59 Z " /><path fill="rgb(19,30,83)" stroke="rgb(19,30,83)" stroke-width="1" opacity="0.11372549019607843" d="M 435.5 62 L 434.5 64 L 435.5 62 Z " /><path fill="rgb(19,30,83)" stroke="rgb(19,30,83)" stroke-width="1" opacity="0.11372549019607843" d="M 476.5 63 L 477.5 65 L 476.5 63 Z " /><path fill="rgb(19,30,83)" stroke="rgb(19,30,83)" stroke-width="1" opacity="0.11372549019607843" d="M 136.5 68 L 137 73.5 L 136 73.5 L 136.5 68 Z " /><path fill="rgb(19,30,83)" stroke="rgb(19,30,83)" stroke-width="1" opacity="0.11372549019607843" d="M 560.5 68 L 561.5 70 L 560.5 68 Z " /><path fill="rgb(19,30,83)" stroke="rgb(19,30,83)" stroke-width="1" opacity="0.11372549019607843" d="M 484.5 71 L 485.5 73 L 484.5 71 Z " /><path fill="rgb(19,30,83)" stroke="rgb(19,30,83)" stroke-width="1" opacity="0.11372549019607843" d="M 214.5 74 L 215.5 76 L 214.5 74 Z " /><path fill="rgb(19,30,83)" stroke="rgb(19,30,83)" stroke-width="1" opacity="0.11372549019607843" d="M 568.5 76 L 569.5 78 L 568.5 76 Z " /><path fill="rgb(19,30,83)" stroke="rgb(19,30,83)" stroke-width="1" opacity="0.11372549019607843" d="M 218.5 77 L 223.5 83 L 218.5 77 Z " /><path fill="rgb(19,30,83)" stroke="rgb(19,30,83)" stroke-width="1" opacity="0.11372549019607843" d="M 462.5 77 L 459.5 81 L 462.5 77 Z " /><path fill="rgb(19,30,83)" stroke="rgb(19,30,83)" stroke-width="1" opacity="0.11372549019607843" d="M 455.5 83 L 454.5 85 L 455.5 83 Z " /><path fill="rgb(19,30,83)" stroke="rgb(19,30,83)" stroke-width="1" opacity="0.11372549019607843" d="M 323.5 84 L 324 138.5 L 323 138.5 L 323.5 84 Z " /><path fill="rgb(19,30,83)" stroke="rgb(19,30,83)" stroke-width="1" opacity="0.11372549019607843" d="M 205.5 85 L 206.5 87 L 205.5 85 Z " /><path fill="rgb(19,30,83)" stroke="rgb(19,30,83)" stroke-width="1" opacity="0.11372549019607843" d="M 212.5 92 L 213.5 94 L 212.5 92 Z " /><path fill="rgb(19,30,83)" stroke="rgb(19,30,83)" stroke-width="1" opacity="0.11372549019607843" d="M 445.5 92 L 446.5 94 L 445.5 92 Z " /><path fill="rgb(19,30,83)" stroke="rgb(19,30,83)" stroke-width="1" opacity="0.11372549019607843" d="M 485.5 98 L 486.5 100 L 485.5 98 Z " /><path fill="rgb(19,30,83)" stroke="rgb(19,30,83)" stroke-width="1" opacity="0.11372549019607843" d="M 544.5 99 L 545 103.5 L 544 103.5 L 544.5 99 Z " /><path fill="rgb(19,30,83)" stroke="rgb(19,30,83)" stroke-width="1" opacity="0.11372549019607843" d="M 215.5 100 L 216 104.5 L 215 104.5 L 215.5 100 Z " /><path fill="rgb(19,30,83)" stroke="rgb(19,30,83)" stroke-width="1" opacity="0.11372549019607843" d="M 481.5 100 L 479.5 103 L 481.5 100 Z " /><path fill="rgb(19,30,83)" stroke="rgb(19,30,83)" stroke-width="1" opacity="0.11372549019607843" d="M 489.5 101 L 490.5 103 L 489.5 101 Z " /><path fill="rgb(19,30,83)" stroke="rgb(19,30,83)" stroke-width="1" opacity="0.11372549019607843" d="M 492.5 103 L 493.5 105 L 492.5 103 Z " /><path fill="rgb(19,30,83)" stroke="rgb(19,30,83)" stroke-width="1" opacity="0.11372549019607843" d="M 111.5 105 L 110.5 107 L 111.5 105 Z " /><path fill="rgb(19,30,83)" stroke="rgb(19,30,83)" stroke-width="1" opacity="0.11372549019607843" d="M 454.5 105 L 455.5 107 L 454.5 105 Z " /><path fill="rgb(19,30,83)" stroke="rgb(19,30,83)" stroke-width="1" opacity="0.11372549019607843" d="M 8.5 106 L 9.5 108 L 8.5 106 Z " /><path fill="rgb(19,30,83)" stroke="rgb(19,30,83)" stroke-width="1" opacity="0.11372549019607843" d="M 25.5 106 L 27.5 109 L 25.5 106 Z " /><path fill="rgb(19,30,83)" stroke="rgb(19,30,83)" stroke-width="1" opacity="0.11372549019607843" d="M 476.5 106 L 474.5 109 L 476.5 106 Z " /><path fill="rgb(19,30,83)" stroke="rgb(19,30,83)" stroke-width="1" opacity="0.11372549019607843" d="M 456.5 108 L 457.5 110 L 456.5 108 Z " /><path fill="rgb(19,30,83)" stroke="rgb(19,30,83)" stroke-width="1" opacity="0.11372549019607843" d="M 108.5 109 L 103.5 115 L 108.5 109 Z " /><path fill="rgb(19,30,83)" stroke="rgb(19,30,83)" stroke-width="1" opacity="0.11372549019607843" d="M 458.5 111 L 459.5 113 L 458.5 111 Z " /><path fill="rgb(19,30,83)" stroke="rgb(19,30,83)" stroke-width="1" opacity="0.11372549019607843" d="M 12.5 112 L 13.5 114 L 12.5 112 Z " /><path fill="rgb(19,30,83)" stroke="rgb(19,30,83)" stroke-width="1" opacity="0.11372549019607843" d="M 471.5 112 L 469.5 115 L 471.5 112 Z " /><path fill="rgb(19,30,83)" stroke="rgb(19,30,83)" stroke-width="1" opacity="0.11372549019607843" d="M 122.5 113 L 121.5 115 L 122.5 113 Z " /><path fill="rgb(19,30,83)" stroke="rgb(19,30,83)" stroke-width="1" opacity="0.11372549019607843" d="M 133.5 113 L 132.5 115 L 133.5 113 Z " /><path fill="rgb(19,30,83)" stroke="rgb(19,30,83)" stroke-width="1" opacity="0.11372549019607843" d="M 34.5 115 L 35.5 117 L 34.5 115 Z " /><path fill="rgb(19,30,83)" stroke="rgb(19,30,83)" stroke-width="1" opacity="0.11372549019607843" d="M 145.5 115 L 146.5 117 L 145.5 115 Z " /><path fill="rgb(19,30,83)" stroke="rgb(19,30,83)" stroke-width="1" opacity="0.11372549019607843" d="M 211.5 115 L 206.5 121 L 211.5 115 Z " /><path fill="rgb(19,30,83)" stroke="rgb(19,30,83)" stroke-width="1" opacity="0.11372549019607843" d="M 15.5 116 L 24.5 126 L 15.5 116 Z " /><path fill="rgb(19,30,83)" stroke="rgb(19,30,83)" stroke-width="1" opacity="0.11372549019607843" d="M 99.5 117 L 98.5 119 L 99.5 117 Z " /><path fill="rgb(19,30,83)" stroke="rgb(19,30,83)" stroke-width="1" opacity="0.11372549019607843" d="M 130.5 117 L 129.5 119 L 130.5 117 Z " /><path fill="rgb(19,30,83)" stroke="rgb(19,30,83)" stroke-width="1" opacity="0.11372549019607843" d="M 118.5 118 L 113.5 124 L 118.5 118 Z " /><path fill="rgb(19,30,83)" stroke="rgb(19,30,83)" stroke-width="1" opacity="0.11372549019607843" d="M 128.5 120 L 129.5 122 L 128.5 120 Z " /><path fill="rgb(19,30,83)" stroke="rgb(19,30,83)" stroke-width="1" opacity="0.11372549019607843" d="M 466.5 120 L 467.5 122 L 465 121.5 L 466.5 120 Z " /><path fill="rgb(19,30,83)" stroke="rgb(19,30,83)" stroke-width="1" opacity="0.11372549019607843" d="M 223.5 121 L 222.5 123 L 223.5 121 Z " /><path fill="rgb(19,30,83)" stroke="rgb(19,30,83)" stroke-width="1" opacity="0.11372549019607843" d="M 132.5 123 L 133.5 125 L 132.5 123 Z " /><path fill="rgb(19,30,83)" stroke="rgb(19,30,83)" stroke-width="1" opacity="0.11372549019607843" d="M 467.5 124 L 468.5 126 L 467.5 124 Z " /><path fill="rgb(19,30,83)" stroke="rgb(19,30,83)" stroke-width="1" opacity="0.11372549019607843" d="M 471.5 124 L 472.5 126 L 471.5 124 Z " /><path fill="rgb(19,30,83)" stroke="rgb(19,30,83)" stroke-width="1" opacity="0.11372549019607843" d="M 220.5 125 L 217.5 129 L 220.5 125 Z " /><path fill="rgb(19,30,83)" stroke="rgb(19,30,83)" stroke-width="1" opacity="0.11372549019607843" d="M 566.5 125 L 561.5 131 L 566.5 125 Z " /><path fill="rgb(19,30,83)" stroke="rgb(19,30,83)" stroke-width="1" opacity="0.11372549019607843" d="M 109.5 126 L 108.5 128 L 109.5 126 Z " /><path fill="rgb(19,30,83)" stroke="rgb(19,30,83)" stroke-width="1" opacity="0.11372549019607843" d="M 27.5 127 L 28.5 129 L 27.5 127 Z " /><path fill="rgb(19,30,83)" stroke="rgb(19,30,83)" stroke-width="1" opacity="0.11372549019607843" d="M 63.5 127 L 67 127.5 L 63.5 128 L 63.5 127 Z " /><path fill="rgb(19,30,83)" stroke="rgb(19,30,83)" stroke-width="1" opacity="0.11372549019607843" d="M 70.5 127 L 74 127.5 L 70.5 128 L 70.5 127 Z " /><path fill="rgb(19,30,83)" stroke="rgb(19,30,83)" stroke-width="1" opacity="0.11372549019607843" d="M 469.5 127 L 470.5 129 L 469.5 127 Z " /><path fill="rgb(19,30,83)" stroke="rgb(19,30,83)" stroke-width="1" opacity="0.11372549019607843" d="M 30.5 129 L 31.5 131 L 30.5 129 Z " /><path fill="rgb(19,30,83)" stroke="rgb(19,30,83)" stroke-width="1" opacity="0.11372549019607843" d="M 214.5 130 L 213.5 132 L 214.5 130 Z " /><path fill="rgb(19,30,83)" stroke="rgb(19,30,83)" stroke-width="1" opacity="0.11372549019607843" d="M 435.5 130 L 436.5 132 L 435.5 130 Z " /><path fill="rgb(19,30,83)" stroke="rgb(19,30,83)" stroke-width="1" opacity="0.11372549019607843" d="M 471.5 130 L 472.5 132 L 471.5 130 Z " /><path fill="rgb(19,30,83)" stroke="rgb(19,30,83)" stroke-width="1" opacity="0.11372549019607843" d="M 558.5 132 L 557.5 134 L 558.5 132 Z " /><path fill="rgb(19,30,83)" stroke="rgb(19,30,83)" stroke-width="1" opacity="0.11372549019607843" d="M 437.5 133 L 438.5 135 L 437.5 133 Z " /><path fill="rgb(19,30,83)" stroke="rgb(19,30,83)" stroke-width="1" opacity="0.11372549019607843" d="M 439.5 136 L 440.5 138 L 439.5 136 Z " /><path fill="rgb(19,30,83)" stroke="rgb(19,30,83)" stroke-width="1" opacity="0.11372549019607843" d="M 61.5 140 L 74 140.5 L 61.5 141 L 61.5 140 Z " /><path fill="rgb(19,30,83)" stroke="rgb(19,30,83)" stroke-width="1" opacity="0.11372549019607843" d="M 514.5 141 L 518 141.5 L 514.5 142 L 514.5 141 Z " /><path fill="rgb(19,30,83)" stroke="rgb(19,30,83)" stroke-width="1" opacity="0.11372549019607843" d="M 531.5 141 L 534 141.5 L 531.5 142 L 531.5 141 Z " /><path fill="rgb(0,0,0)" stroke="rgb(0,0,0)" stroke-width="1" opacity="0" d="M 0 0 L 507 0.5 Q 487.3 3.8 478 17.5 Q 472.6 23.6 471.5 34 Q 469 21 460.5 14 Q 450.9 4.6 434.5 2 L 423.5 2 L 422.5 1 L 358 1 L 358 138.5 L 358.5 139 L 389 139 L 389 95 L 411.5 95 L 441.5 139 L 476.5 139 L 477 137.5 L 445 91.5 L 445 89 Q 456.2 86 463 77.5 Q 471.1 69.6 472.5 55 Q 475.8 67.2 485.5 73 L 497.5 79 L 530.5 88 L 537.5 91 L 543 95.5 Q 545.3 98.7 544 105.5 L 539.5 111 L 532.5 114 L 516.5 114 L 503.5 110 L 485.5 98 L 483.5 98 L 469 114.5 L 466 120.5 Q 483.2 137.8 514 141.5 L 0 142 L 0.5 84 Q 5.6 111.9 24.5 126 Q 33.8 133.7 46.5 138 L 61.5 141 L 73.5 141 Q 75.3 138.2 81.5 140 L 94.5 136 Q 109.1 129.6 119 118.5 Q 127 109.5 132 97.5 L 136 83.5 L 137 68.5 L 136 67.5 L 135 53.5 L 131 41.5 Q 124.1 25.9 111.5 16 Q 101.3 7.2 86.5 3 L 75.5 1 L 61.5 1 L 46.5 4 L 33.5 10 L 17 23.5 Q 9 32.5 4 44.5 L 0.5 59 L 0 0 Z M 238 1 L 238 139 L 269 139 L 269 84 L 323 84 L 323 139 L 354 139 L 354 139 L 354 1 L 323 1 L 323 55 L 269 55 L 269 1 L 238 1 Z M 169 2 Q 154 5 146 13 Q 138 20 135 33 Q 133 49 140 57 Q 147 65 158 69 L 195 80 L 208 87 Q 213 91 215 98 Q 217 109 212 115 Q 205 125 191 127 L 177 127 L 167 125 L 158 122 L 138 110 L 135 110 L 128 121 Q 145 135 173 140 L 193 140 L 198 139 Q 210 136 218 129 Q 226 122 229 110 L 229 93 L 224 83 Q 216 73 203 68 L 169 58 L 156 51 L 149 42 Q 148 31 152 27 Q 158 17 172 15 L 187 15 L 196 17 Q 209 21 220 28 L 225 21 L 226 17 L 222 13 L 204 5 L 190 2 L 169 2 Z " /><path fill="rgb(0,0,0)" stroke="rgb(0,0,0)" stroke-width="1" opacity="0" d="M 533.5 0 L 575 0 L 575 88.5 L 574 88.5 Q 571.2 74.3 560.5 68 L 546.5 61 L 511.5 51 L 503 44.5 L 502 35.5 L 506.5 30 L 515.5 27 L 522.5 27 Q 542.2 30.3 554.5 41 L 571 17.5 Q 563.8 10.2 553.5 6 L 542.5 2 L 533.5 1 L 533.5 0 Z " /><path fill="rgb(0,0,0)" stroke="rgb(0,0,0)" stroke-width="1" opacity="0" d="M 64.5 14 L 78.5 15 L 85.5 17 Q 100 22.4 109 33.5 Q 123.2 48.3 122 78.5 Q 117.7 104.2 100.5 117 L 85.5 125 L 78.5 127 L 67.5 128 L 66.5 127 L 58.5 127 L 48.5 124 Q 36.2 118.8 28 109.5 Q 20 100.5 16 87.5 L 14 77.5 L 14 63.5 Q 18.3 37.8 35.5 25 L 47.5 18 L 64.5 14 Z " /><path fill="rgb(0,0,0)" stroke="rgb(0,0,0)" stroke-width="1" opacity="0" d="M 389 30 L 426.5 30 Q 434.9 32.1 439 38.5 Q 443 43.5 441 54.5 L 437 62 L 430.5 66 L 422.5 68 L 389 68 L 389 30 Z " /><path fill="rgb(0,0,0)" stroke="rgb(0,0,0)" stroke-width="1" opacity="0" d="M 574.5 108 L 575 142 L 534 141.5 Q 556.2 139.2 567 125.5 Q 573 119 574.5 108 Z " /></svg>