<?xml version="1.0" encoding="UTF-8"?>
<svg version="1.1" xmlns="http://www.w3.org/2000/svg" width="1280" height="720">
<path d="M0 0 C1.9490625 0.309375 1.9490625 0.309375 3.9375 0.625 C15.47222636 3.14453067 27.91166253 10.66736408 37 18 C37 18.66 37 19.32 37 20 C37.99 20.33 38.98 20.66 40 21 C39.45852159 25.54334226 37.50772217 28.7244144 35 32.4375 C34.18856369 33.66781155 33.3773735 34.89828546 32.56640625 36.12890625 C32.14633301 36.76070801 31.72625977 37.39250977 31.29345703 38.04345703 C29.14121772 41.29903382 27.04188714 44.58837765 24.9375 47.875 C24.17602535 49.06005272 23.41432945 50.24496332 22.65234375 51.4296875 C22.10707031 52.27789062 21.56179688 53.12609375 21 54 C17.12198881 53.37658449 14.6087589 51.49648433 11.4375 49.25 C5.85685179 45.44315196 0.24401933 42.54495575 -6 40 C-6.86496094 39.6390625 -7.72992187 39.278125 -8.62109375 38.90625 C-16.49938044 35.90499793 -27.2393358 35.59287913 -35 39 C-35.721875 39.268125 -36.44375 39.53625 -37.1875 39.8125 C-39.92880885 41.60852994 -40.74549816 42.9264705 -42 46 C-42.69304417 52.22803207 -42.7273157 56.7866105 -39 62 C-31.35717594 67.2672664 -22.15426101 69.71537959 -13.32977295 72.26998901 C-1.24124557 75.7865709 10.02293193 79.72945848 21 86 C22.99446775 87.01098882 24.99281923 88.01449233 27 89 C27 89.66 27 90.32 27 91 C27.58523438 91.24878906 28.17046875 91.49757813 28.7734375 91.75390625 C31.31165699 93.17441856 32.75197126 94.7220453 34.625 96.9375 C35.21539063 97.62714844 35.80578125 98.31679688 36.4140625 99.02734375 C40 103.48768473 40 103.48768473 40 107 C40.66 107 41.32 107 42 107 C44.43902542 115.28935292 45.47145588 122.87255711 45.375 131.5 C45.38660156 132.53769531 45.39820313 133.57539063 45.41015625 134.64453125 C45.35038148 150.64424421 40.16107946 162.18927778 29.2734375 173.74609375 C22.35280515 180.60727049 15.26897163 183.99211738 6 187 C5.01386719 187.32226562 4.02773438 187.64453125 3.01171875 187.9765625 C-15.29973347 193.05911863 -36.78796527 190.88884925 -54 183 C-57.98205957 181.28359501 -61.96542379 179.58937851 -66 178 C-66 177.34 -66 176.68 -66 176 C-66.87269531 175.75121094 -67.74539063 175.50242187 -68.64453125 175.24609375 C-72.18171268 173.93251881 -74.67547217 172.31837022 -77.6875 170.0625 C-78.61949219 169.37285156 -79.55148437 168.68320312 -80.51171875 167.97265625 C-82.49506869 166.40029876 -84.27337004 164.8421236 -86 163 C-85.46890625 163.85722656 -84.9378125 164.71445312 -84.390625 165.59765625 C-82.24986155 169.05869205 -80.1229127 172.52798438 -78 176 C-77.53078125 176.76441406 -77.0615625 177.52882813 -76.578125 178.31640625 C-74.90912699 181.11621089 -74 182.67653586 -74 186 C-80.15617143 186.22293923 -86.30998285 186.38599806 -92.46923828 186.49438477 C-94.56275362 186.53957205 -96.65598605 186.60093836 -98.74853516 186.67895508 C-101.76275331 186.78849792 -104.77321344 186.83923682 -107.7890625 186.87890625 C-108.72054108 186.92535782 -109.65201965 186.97180939 -110.61172485 187.01966858 C-113.35154933 187.02178392 -115.41436208 186.9179183 -118 186 C-120.62140608 183.29166098 -122.30425356 180.34523146 -124 177 C-124.52207031 176.16210938 -125.04414062 175.32421875 -125.58203125 174.4609375 C-125.98808594 173.77257812 -126.39414062 173.08421875 -126.8125 172.375 C-127.54919922 171.13363281 -127.54919922 171.13363281 -128.30078125 169.8671875 C-129.14189453 168.44792969 -129.14189453 168.44792969 -130 167 C-131.49722154 164.49833109 -132.99871618 161.99923265 -134.5 159.5 C-136.54544391 156.09261866 -138.59068096 152.68514314 -140.62890625 149.2734375 C-141.10199219 148.48195313 -141.57507813 147.69046875 -142.0625 146.875 C-142.52011719 146.10929688 -142.97773437 145.34359375 -143.44921875 144.5546875 C-144.66635618 142.54962988 -145.89882064 140.5575565 -147.14453125 138.5703125 C-147.51376709 137.97879395 -147.88300293 137.38727539 -148.26342773 136.77783203 C-149.32571291 135.07882903 -150.39320061 133.38308218 -151.4609375 131.6875 C-153 129 -153 129 -153 127 C-166.365 127.495 -166.365 127.495 -180 128 C-180 147.14 -180 166.28 -180 186 C-192.87 186 -205.74 186 -219 186 C-219 124.62 -219 63.24 -219 0 C-113.875 0 -113.875 0 -94.1875 17.5 C-85.33653846 27.61538462 -85.33653846 27.61538462 -85 33 C-84.34 33 -83.68 33 -83 33 C-82.01 35.475 -82.01 35.475 -81 38 C-80.78085937 37.39414062 -80.56171875 36.78828125 -80.3359375 36.1640625 C-73.8054858 18.90880393 -63.79094656 8.54610264 -47.0703125 0.609375 C-33.59011576 -4.26133222 -13.52032978 -4.78921763 0 0 Z M-180 40 C-180.33 56.17 -180.66 72.34 -181 89 C-174.420625 89.04125 -167.84125 89.0825 -161.0625 89.125 C-159.00394775 89.14320801 -156.94539551 89.16141602 -154.82446289 89.18017578 C-153.16552998 89.18602517 -151.50659417 89.19111966 -149.84765625 89.1953125 C-149.00843628 89.20554443 -148.16921631 89.21577637 -147.30456543 89.22631836 C-140.2283812 89.22837569 -132.4996968 88.83060269 -126.6875 84.375 C-126.07261719 83.92898438 -125.45773437 83.48296875 -124.82421875 83.0234375 C-119.70273796 77.34265153 -118.34680625 71.48096141 -118.5 64 C-118.48453125 63.24460937 -118.4690625 62.48921875 -118.453125 61.7109375 C-118.49961316 54.9469108 -120.49277604 49.50722396 -125.3125 44.6875 C-132.2536069 40.32913055 -137.44803916 39.57452662 -145.52734375 39.70703125 C-146.40491333 39.71005249 -147.28248291 39.71307373 -148.18664551 39.71618652 C-151.4370515 39.73177768 -154.68728867 39.77366107 -157.9375 39.8125 C-165.218125 39.874375 -172.49875 39.93625 -180 40 Z M-80 76 C-80.38091797 77.53720703 -80.38091797 77.53720703 -80.76953125 79.10546875 C-81.11676597 80.46625347 -81.46444584 81.82692465 -81.8125 83.1875 C-81.97814453 83.86103516 -82.14378906 84.53457031 -82.31445312 85.22851562 C-85.32466935 96.87180481 -94.45866433 106.95721377 -104 114 C-107.25348555 115.8701854 -110.55882061 117.50570916 -114 119 C-109.35645307 127.19160921 -104.40956402 135.15983356 -99.36132812 143.10595703 C-95.81842621 148.68704045 -92.3430525 154.29628323 -89 160 C-88.72285156 159.401875 -88.44570313 158.80375 -88.16015625 158.1875 C-86.74402358 155.51735085 -84.83089997 153.44739605 -82.84375 151.1875 C-77.92245787 145.34867883 -73.42807972 139.11761682 -69.125 132.8125 C-67 130 -67 130 -64 129 C-63.67 129.99 -63.34 130.98 -63 132 C-61.44273141 133.44197626 -61.44273141 133.44197626 -59.5625 134.6875 C-58.94503906 135.12449219 -58.32757812 135.56148437 -57.69140625 136.01171875 C-56.03868895 137.1681636 -56.03868895 137.1681636 -54 137 C-54 137.66 -54 138.32 -54 139 C-50.33996899 141.0123658 -46.67143899 143.00853796 -43 145 C-41.989375 145.556875 -40.97875 146.11375 -39.9375 146.6875 C-38.968125 147.120625 -37.99875 147.55375 -37 148 C-36.37996094 148.2784375 -35.75992188 148.556875 -35.12109375 148.84375 C-29.14334126 151.08930572 -23.25379926 151.34759859 -16.9375 151.4375 C-16.09880371 151.45965576 -15.26010742 151.48181152 -14.39599609 151.50463867 C-7.06189533 151.47950713 -0.76912413 149.70158452 4.5625 144.5 C6.6540176 139.40760931 6.81154272 134.4322184 6 129 C2.42078719 121.46196089 -4.9260991 119.28940758 -12.375 116.5625 C-18.05205867 114.6067962 -23.77058523 112.79554797 -29.5 111 C-49.1923845 104.81780377 -66.65895539 99.17207073 -77.0390625 80.08984375 C-77.72156793 78.74077927 -78.36643328 77.37272789 -79 76 C-79.33 76 -79.66 76 -80 76 Z " fill="#131C54" transform="translate(937,270)"/>
<path d="M0 0 C12.87 0 25.74 0 39 0 C39 23.76 39 47.52 39 72 C60.12 72 81.24 72 103 72 C102.98839844 66.88628906 102.97679687 61.77257812 102.96484375 56.50390625 C102.95973689 53.2727852 102.95492311 50.04166909 102.95117188 46.81054688 C102.94518384 41.6769915 102.93808462 36.54345388 102.92456055 31.40991211 C102.91373025 27.273206 102.90772286 23.13651892 102.90512276 18.99979973 C102.90326876 17.41807696 102.89964864 15.83635529 102.89426994 14.25464058 C102.8870576 12.04677162 102.88600914 9.83898227 102.88647461 7.63110352 C102.884254 6.37201675 102.88203339 5.11292999 102.87974548 3.81568909 C103 1 103 1 104 0 C116.54 0 129.08 0 142 0 C142 61.38 142 122.76 142 186 C129.46 186 116.92 186 104 186 C103 185 103 185 102.87974548 182.14634705 C102.88196609 180.86949539 102.88418671 179.59264374 102.88647461 178.27709961 C102.88632858 177.5746965 102.88618256 176.8722934 102.8860321 176.14860535 C102.88673128 173.81648722 102.89452383 171.484448 102.90234375 169.15234375 C102.90420792 167.53951562 102.90563182 165.92668693 102.90663147 164.31385803 C102.91045677 160.06084643 102.92028715 155.80786876 102.93133545 151.55487061 C102.94334388 146.45628308 102.94795175 141.35768422 102.95378876 136.25908661 C102.96349891 128.50603411 102.98265536 120.75305613 103 113 C71.32 112.505 71.32 112.505 39 112 C39 136.42 39 160.84 39 186 C26.13 186 13.26 186 0 186 C0 124.62 0 63.24 0 0 Z " fill="#131D54" transform="translate(572,270)"/>
<path d="M0 0 C6.67185148 5.93750276 11.80494141 13.08631837 16.73925781 20.48779297 C16.73925781 21.47779297 16.73925781 22.46779297 16.73925781 23.48779297 C17.39925781 23.48779297 18.05925781 23.48779297 18.73925781 23.48779297 C18.99320313 24.12845703 19.24714844 24.76912109 19.50878906 25.42919922 C19.85296875 26.29416016 20.19714844 27.15912109 20.55175781 28.05029297 C20.88820313 28.89720703 21.22464844 29.74412109 21.57128906 30.61669922 C22.42344925 32.71147427 23.33265585 34.78330319 24.27441406 36.83935547 C25.84458626 40.75013103 26.61265681 44.15822813 27.36425781 48.30029297 C28.11380486 53.02728587 28.11380486 53.02728587 29.73925781 57.48779297 C32.07113603 83.55300948 28.60388453 109.85032365 12.73925781 131.48779297 C12.03736328 132.52806641 12.03736328 132.52806641 11.32128906 133.58935547 C10.18466657 135.26262378 8.96927838 136.88193278 7.73925781 138.48779297 C7.07925781 138.48779297 6.41925781 138.48779297 5.73925781 138.48779297 C5.51238281 139.04466797 5.28550781 139.60154297 5.05175781 140.17529297 C3.36375745 143.14938884 1.27249265 145.20788162 -1.26074219 147.48779297 C-1.92074219 147.48779297 -2.58074219 147.48779297 -3.26074219 147.48779297 C-3.26074219 148.14779297 -3.26074219 148.80779297 -3.26074219 149.48779297 C-5.73574219 150.47779297 -5.73574219 150.47779297 -8.26074219 151.48779297 C-8.26074219 152.14779297 -8.26074219 152.80779297 -8.26074219 153.48779297 C-26.12071945 166.19585371 -47.65180723 169.52477805 -69.01074219 166.80029297 C-90.75121598 162.94008554 -108.19231768 148.49451736 -120.94042969 131.21044922 C-136.75677481 108.55128121 -140.93045704 79.45904036 -136.61230469 52.42138672 C-135.71985087 48.64180664 -134.63008045 45.12056682 -133.26074219 41.48779297 C-132.88272461 40.44413574 -132.88272461 40.44413574 -132.49707031 39.37939453 C-127.39439832 25.42352544 -120.5901626 14.268023 -110.26074219 3.48779297 C-109.41511719 2.58029297 -108.56949219 1.67279297 -107.69824219 0.73779297 C-76.34878605 -28.20016655 -31.96770041 -27.11051847 0 0 Z M-100.26074219 19.48779297 C-115.7985028 37.1917474 -119.4610822 59.20623327 -118.42480469 82.05615234 C-117.38166785 97.5169304 -111.97530351 112.39953793 -102.26074219 124.48779297 C-101.73222656 125.15552734 -101.20371094 125.82326172 -100.65917969 126.51123047 C-97.80901703 129.97527431 -94.90408027 132.83809254 -91.26074219 135.48779297 C-90.5865625 136.02275391 -89.91238281 136.55771484 -89.21777344 137.10888672 C-75.21846213 147.72826642 -59.6871031 149.51669991 -42.69824219 148.05029297 C-26.42711107 145.4248026 -13.24281097 135.692798 -3.4855957 122.74145508 C1.24832643 116.10839595 4.20005124 109.18538769 6.73925781 101.48779297 C7.19945312 100.21548828 7.19945312 100.21548828 7.66894531 98.91748047 C15.39193592 77.21955446 10.69907004 52.930083 1.73925781 32.48779297 C1.07925781 32.48779297 0.41925781 32.48779297 -0.26074219 32.48779297 C-0.34324219 31.95154297 -0.42574219 31.41529297 -0.51074219 30.86279297 C-3.83463691 20.33712636 -14.67921507 11.38833048 -23.81152344 5.97607422 C-50.46759387 -7.82870254 -80.07695977 -2.41568392 -100.26074219 19.48779297 Z " fill="#131C54" transform="translate(420.2607421875,290.51220703125)"/>
<path d="M0 0 C1.08023438 -0.00128906 2.16046875 -0.00257813 3.2734375 -0.00390625 C4.39234375 -0.00003906 5.51125 0.00382812 6.6640625 0.0078125 C8.33082031 0.00201172 8.33082031 0.00201172 10.03125 -0.00390625 C19.17301501 0.0069768 26.69918512 1.01278105 35.2890625 4.1328125 C36.28164063 4.47183594 37.27421875 4.81085938 38.296875 5.16015625 C47.90194351 8.59715065 55.83716093 13.49821145 64.2890625 19.1328125 C63.78065365 23.95911625 62.41947706 26.9929217 59.7265625 31.0078125 C59.08589844 31.97460938 58.44523438 32.94140625 57.78515625 33.9375 C57.04458984 35.02417969 57.04458984 35.02417969 56.2890625 36.1328125 C52.27811394 35.4725335 49.14514411 33.38684159 45.7265625 31.3203125 C39.7749902 27.8122307 33.85991544 25.29104387 27.2890625 23.1328125 C26.48597656 22.78992188 25.68289063 22.44703125 24.85546875 22.09375 C18.88385489 19.85780326 12.77070442 19.92041753 6.4765625 19.8828125 C5.62513672 19.8621875 4.77371094 19.8415625 3.89648438 19.8203125 C-5.86738041 19.76082208 -14.27868229 22.69633518 -21.7109375 29.1328125 C-27.10713729 35.82882684 -29.24762356 42.50692825 -29.08984375 51.05859375 C-28.2259326 58.06785223 -24.71087991 62.62180743 -19.29101562 66.96118164 C-8.69546833 74.8177996 4.83415731 78.15649675 17.19140625 82.1171875 C21.69282755 83.57121048 25.98191657 85.18474389 30.2890625 87.1328125 C31.91200713 87.76313045 33.53681376 88.38869092 35.1640625 89.0078125 C40.12458379 90.97071816 44.69836671 93.42718503 49.2890625 96.1328125 C49.2890625 96.7928125 49.2890625 97.4528125 49.2890625 98.1328125 C50.9390625 98.7928125 52.5890625 99.4528125 54.2890625 100.1328125 C54.2890625 100.7928125 54.2890625 101.4528125 54.2890625 102.1328125 C54.87429688 102.36742187 55.45953125 102.60203125 56.0625 102.84375 C58.81278112 104.43601802 60.09050761 106.16306259 61.9140625 108.7578125 C62.50445313 109.57507813 63.09484375 110.39234375 63.703125 111.234375 C67.59005807 118.33808027 67.62756426 125.53557845 67.6015625 133.4453125 C67.61767578 134.41404297 67.63378906 135.38277344 67.65039062 136.38085938 C67.65666778 145.79032013 66.02498456 154.38984493 60.7265625 162.3203125 C60.12714844 163.24199219 59.52773438 164.16367187 58.91015625 165.11328125 C58.10771484 166.11294922 58.10771484 166.11294922 57.2890625 167.1328125 C56.6290625 167.1328125 55.9690625 167.1328125 55.2890625 167.1328125 C55.04414062 167.720625 54.79921875 168.3084375 54.546875 168.9140625 C49.71242254 177.44191653 37.33763529 182.43200275 28.2890625 185.1328125 C22.57609967 186.41603184 16.86370743 186.31656434 11.0390625 186.3203125 C10.05292969 186.33255859 9.06679688 186.34480469 8.05078125 186.35742188 C-11.36456527 186.39579213 -28.05084063 178.29972824 -44.7109375 169.1328125 C-44.7109375 168.4728125 -44.7109375 167.8128125 -44.7109375 167.1328125 C-45.7628125 166.7615625 -45.7628125 166.7615625 -46.8359375 166.3828125 C-50.08096209 164.97193224 -52.81410487 163.15385852 -55.7109375 161.1328125 C-55.16256929 156.8905751 -53.73694064 154.36680445 -51.2109375 150.9453125 C-48.7614117 147.66030782 -48.7614117 147.66030782 -46.7109375 144.1328125 C-43.31012763 144.74282324 -41.28082005 146.00149854 -38.5859375 148.1328125 C-35.78196017 150.34336432 -35.78196017 150.34336432 -32.7109375 152.1328125 C-32.7109375 152.7928125 -32.7109375 153.4528125 -32.7109375 154.1328125 C-31.5353125 154.473125 -31.5353125 154.473125 -30.3359375 154.8203125 C-27.38328625 155.88937588 -24.85079754 157.05849071 -22.0859375 158.5078125 C-11.32329075 164.0029403 -0.89014082 166.31116677 11.1015625 166.3828125 C11.95298828 166.4034375 12.80441406 166.4240625 13.68164062 166.4453125 C24.24407684 166.50966855 33.76381929 162.85271907 41.6796875 155.8125 C48.50987004 148.68391143 48.74533607 140.39677084 48.55859375 131.05859375 C48.07214127 123.97330764 45.72490042 120.26027975 40.6640625 115.4453125 C32.96813436 109.29525484 24.01584175 106.15099226 14.7265625 103.1953125 C12.60258155 102.50086506 10.47888483 101.80554772 8.35546875 101.109375 C6.80690186 100.60519043 6.80690186 100.60519043 5.22705078 100.09082031 C-34.19836753 87.23513297 -34.19836753 87.23513297 -44.3984375 69.2578125 C-47.64528058 62.840748 -47.91672695 56.94544803 -47.9609375 49.8828125 C-47.9815625 49.07457031 -48.0021875 48.26632812 -48.0234375 47.43359375 C-48.09904707 35.61959766 -42.74998227 23.76904345 -34.7109375 15.1328125 C-34.0509375 15.1328125 -33.3909375 15.1328125 -32.7109375 15.1328125 C-32.3809375 14.1428125 -32.0509375 13.1528125 -31.7109375 12.1328125 C-29.93359375 10.74609375 -29.93359375 10.74609375 -27.7734375 9.4453125 C-27.06316406 9.00832031 -26.35289062 8.57132812 -25.62109375 8.12109375 C-23.7109375 7.1328125 -23.7109375 7.1328125 -21.7109375 7.1328125 C-21.7109375 6.4728125 -21.7109375 5.8128125 -21.7109375 5.1328125 C-19.98349734 4.48237531 -18.2539006 3.83766406 -16.5234375 3.1953125 C-15.56050781 2.83566406 -14.59757812 2.47601563 -13.60546875 2.10546875 C-9.00831355 0.56067571 -4.84469547 0.00559526 0 0 Z " fill="#131C54" transform="translate(494.7109375,270.8671875)"/>
</svg>
